<mxfile host="app.diagrams.net" modified="2024-03-05T19:45:28.734Z" agent="Mozilla/5.0 (Windows NT 10.0; Win64; x64) AppleWebKit/537.36 (KHTML, like Gecko) Chrome/122.0.0.0 Safari/537.36" etag="sZa4ijcvW1NoLSZN7Twj" version="24.0.1" type="device">
  <diagram name="Page-1" id="NhbjsUm66YzSF9Lg0he9">
    <mxGraphModel dx="830" dy="766" grid="1" gridSize="10" guides="1" tooltips="1" connect="1" arrows="1" fold="1" page="1" pageScale="1" pageWidth="850" pageHeight="1100" math="0" shadow="0">
      <root>
        <mxCell id="0" />
        <mxCell id="1" parent="0" />
        <mxCell id="A4LMM_Pry6SWI9XmF5gb-14" style="edgeStyle=entityRelationEdgeStyle;rounded=0;orthogonalLoop=1;jettySize=auto;html=1;fillColor=#008a00;strokeColor=#005700;" edge="1" parent="1" source="A4LMM_Pry6SWI9XmF5gb-7" target="A4LMM_Pry6SWI9XmF5gb-10">
          <mxGeometry relative="1" as="geometry" />
        </mxCell>
        <mxCell id="A4LMM_Pry6SWI9XmF5gb-7" value="" style="shape=image;html=1;verticalAlign=top;verticalLabelPosition=bottom;labelBackgroundColor=#ffffff;imageAspect=0;aspect=fixed;image=https://cdn2.iconfinder.com/data/icons/crystalproject/Open-Office-Icons/stock_insert-plugin.png" vertex="1" parent="1">
          <mxGeometry x="360" y="240" width="24" height="24" as="geometry" />
        </mxCell>
        <mxCell id="A4LMM_Pry6SWI9XmF5gb-8" value="&lt;font style=&quot;font-size: 20px;&quot;&gt;Simple C2&lt;/font&gt;" style="text;html=1;align=center;verticalAlign=middle;whiteSpace=wrap;rounded=0;" vertex="1" parent="1">
          <mxGeometry x="318" y="140" width="108" height="30" as="geometry" />
        </mxCell>
        <mxCell id="A4LMM_Pry6SWI9XmF5gb-9" value="&lt;div&gt;&lt;br&gt;&lt;/div&gt;&lt;div&gt;&lt;br&gt;&lt;/div&gt;&lt;div&gt;&lt;br&gt;&lt;/div&gt;&lt;div&gt;&lt;br&gt;&lt;/div&gt;&lt;div&gt;Command DB&lt;/div&gt;" style="shape=datastore;whiteSpace=wrap;html=1;" vertex="1" parent="1">
          <mxGeometry x="150" y="232" width="30" height="32" as="geometry" />
        </mxCell>
        <mxCell id="A4LMM_Pry6SWI9XmF5gb-13" style="edgeStyle=orthogonalEdgeStyle;rounded=0;orthogonalLoop=1;jettySize=auto;html=1;curved=1;" edge="1" parent="1" source="A4LMM_Pry6SWI9XmF5gb-10" target="A4LMM_Pry6SWI9XmF5gb-9">
          <mxGeometry relative="1" as="geometry" />
        </mxCell>
        <mxCell id="A4LMM_Pry6SWI9XmF5gb-10" value="/api/simplec2/whatever" style="sketch=0;outlineConnect=0;fontColor=#232F3E;gradientColor=none;fillColor=#E7157B;strokeColor=none;dashed=0;verticalLabelPosition=bottom;verticalAlign=top;align=center;html=1;fontSize=12;fontStyle=0;aspect=fixed;pointerEvents=1;shape=mxgraph.aws4.endpoint;" vertex="1" parent="1">
          <mxGeometry x="240" y="440" width="30" height="30" as="geometry" />
        </mxCell>
        <mxCell id="A4LMM_Pry6SWI9XmF5gb-16" value="&lt;font color=&quot;#008500&quot;&gt;Green: Registered Routes&lt;/font&gt;&lt;div&gt;Color: Other&lt;/div&gt;" style="text;html=1;align=center;verticalAlign=middle;resizable=0;points=[];autosize=1;strokeColor=none;fillColor=none;" vertex="1" parent="1">
          <mxGeometry x="500" y="73" width="160" height="40" as="geometry" />
        </mxCell>
      </root>
    </mxGraphModel>
  </diagram>
</mxfile>
